<svg xmlns="http://www.w3.org/2000/svg" width="1200" height="800" viewBox="0 0 1200 800">
  <defs>
    <linearGradient id="bg" x1="0" y1="0" x2="1" y2="1">
      <stop offset="0" stop-color="#2a2a1b"/>
      <stop offset="1" stop-color="#0b1012"/>
    </linearGradient>
    <radialGradient id="shine" cx="35%" cy="22%" r="60%">
      <stop offset="0" stop-color="#ffffff" stop-opacity="0.15"/>
      <stop offset="1" stop-color="#ffffff" stop-opacity="0"/>
    </radialGradient>
  </defs>
  <rect width="1200" height="800" fill="url(#bg)"/>
  <circle cx="470" cy="235" r="520" fill="url(#shine)"/>
  <g opacity="0.55" fill="#7dd3fc">
    <circle cx="990" cy="150" r="6"/><circle cx="1045" cy="230" r="4"/><circle cx="1010" cy="310" r="5"/>
    <circle cx="930" cy="265" r="3"/><circle cx="1090" cy="345" r="5"/><circle cx="960" cy="425" r="4"/>
  </g>
  <g>
    <ellipse cx="610" cy="520" rx="320" ry="170" fill="#0f172a" opacity="0.6"/>
    <ellipse cx="610" cy="500" rx="300" ry="150" fill="#111827"/>
    <path d="M430 540c50-120 160-185 280-195 115-10 225 40 290 150 32 55 10 126-52 153-150 67-350 34-518-108z" fill="#fde68a" opacity="0.95"/>
    <g opacity="0.8">
      <circle cx="520" cy="500" r="22" fill="#fb7185"/>
      <circle cx="650" cy="520" r="20" fill="#22c55e"/>
      <circle cx="740" cy="480" r="16" fill="#60a5fa"/>
    </g>
  </g>
  <text x="50" y="740" fill="#e5e7eb" font-family="system-ui, -apple-system, Segoe UI, Roboto" font-size="42" opacity="0.85">
    M&amp;N — Warm Vanilla Bubble Pudding (illustration)
  </text>
</svg>


