<svg xmlns="http://www.w3.org/2000/svg" width="1200" height="800" viewBox="0 0 1200 800">
  <defs>
    <linearGradient id="bg" x1="0" y1="0" x2="1" y2="1">
      <stop offset="0" stop-color="#1b2233"/>
      <stop offset="1" stop-color="#0b1012"/>
    </linearGradient>
    <radialGradient id="shine" cx="38%" cy="25%" r="60%">
      <stop offset="0" stop-color="#ffffff" stop-opacity="0.15"/>
      <stop offset="1" stop-color="#ffffff" stop-opacity="0"/>
    </radialGradient>
  </defs>
  <rect width="1200" height="800" fill="url(#bg)"/>
  <circle cx="500" cy="240" r="520" fill="url(#shine)"/>
  <g opacity="0.5" fill="#93c5fd">
    <circle cx="1020" cy="160" r="6"/><circle cx="1060" cy="240" r="4"/><circle cx="980" cy="310" r="5"/>
    <circle cx="920" cy="270" r="3"/><circle cx="1090" cy="350" r="5"/><circle cx="960" cy="430" r="4"/>
  </g>
  <g>
    <ellipse cx="600" cy="520" rx="330" ry="180" fill="#0f172a" opacity="0.6"/>
    <ellipse cx="600" cy="500" rx="310" ry="160" fill="#111827"/>
    <path d="M420 520c50-120 160-180 270-180 120 0 220 62 280 170 30 54 8 128-54 154-145 61-340 30-496-144z" fill="#fb923c" opacity="0.92"/>
    <path d="M450 495c120 40 250 45 400 5" fill="none" stroke="#fde68a" stroke-width="14" stroke-linecap="round" opacity="0.8"/>
  </g>
  <text x="50" y="740" fill="#e5e7eb" font-family="system-ui, -apple-system, Segoe UI, Roboto" font-size="42" opacity="0.85">
    M&amp;N — Charred Bottle Pepper Pasta (illustration)
  </text>
</svg>


