<svg xmlns="http://www.w3.org/2000/svg" width="1200" height="800" viewBox="0 0 1200 800">
  <defs>
    <linearGradient id="bg" x1="0" y1="0" x2="1" y2="1">
      <stop offset="0" stop-color="#1b2a2f"/>
      <stop offset="1" stop-color="#0b1012"/>
    </linearGradient>
    <radialGradient id="shine" cx="35%" cy="25%" r="60%">
      <stop offset="0" stop-color="#ffffff" stop-opacity="0.18"/>
      <stop offset="1" stop-color="#ffffff" stop-opacity="0"/>
    </radialGradient>
  </defs>
  <rect width="1200" height="800" fill="url(#bg)"/>
  <circle cx="420" cy="240" r="520" fill="url(#shine)"/>
  <g opacity="0.55" fill="#7dd3fc">
    <circle cx="980" cy="160" r="6"/><circle cx="1040" cy="230" r="4"/><circle cx="1010" cy="310" r="5"/>
    <circle cx="930" cy="260" r="3"/><circle cx="1090" cy="340" r="5"/><circle cx="960" cy="420" r="4"/>
  </g>
  <g>
    <ellipse cx="610" cy="520" rx="320" ry="170" fill="#0f172a" opacity="0.65"/>
    <ellipse cx="610" cy="500" rx="300" ry="150" fill="#111827"/>
    <path d="M400 520c70-140 210-190 420-120 20 7 34 22 40 43 18 63-8 120-78 152-130 59-292 26-382-75z" fill="#f59e0b" opacity="0.95"/>
    <path d="M490 420c40-30 120-35 180 0 50 28 92 63 120 105" fill="none" stroke="#fde68a" stroke-width="16" stroke-linecap="round" opacity="0.85"/>
  </g>
  <text x="50" y="740" fill="#e5e7eb" font-family="system-ui, -apple-system, Segoe UI, Roboto" font-size="42" opacity="0.85">
    M&amp;N — Bottle-Glazed Chicken (illustration)
  </text>
</svg>


