<svg xmlns="http://www.w3.org/2000/svg" width="1200" height="800" viewBox="0 0 1200 800">
  <defs>
    <linearGradient id="bg" x1="0" y1="0" x2="1" y2="1">
      <stop offset="0" stop-color="#2a2133"/>
      <stop offset="1" stop-color="#0b1012"/>
    </linearGradient>
    <radialGradient id="shine" cx="35%" cy="22%" r="60%">
      <stop offset="0" stop-color="#ffffff" stop-opacity="0.16"/>
      <stop offset="1" stop-color="#ffffff" stop-opacity="0"/>
    </radialGradient>
  </defs>
  <rect width="1200" height="800" fill="url(#bg)"/>
  <circle cx="450" cy="230" r="520" fill="url(#shine)"/>
  <g opacity="0.55" fill="#7dd3fc">
    <circle cx="980" cy="150" r="6"/><circle cx="1040" cy="230" r="4"/><circle cx="1010" cy="310" r="5"/>
    <circle cx="930" cy="260" r="3"/><circle cx="1090" cy="340" r="5"/><circle cx="960" cy="420" r="4"/>
  </g>
  <g>
    <ellipse cx="610" cy="520" rx="320" ry="170" fill="#0f172a" opacity="0.6"/>
    <ellipse cx="610" cy="500" rx="300" ry="150" fill="#111827"/>
    <path d="M430 540c40-120 140-190 260-200 120-10 230 42 300 150 34 52 14 126-48 154-150 69-350 40-512-104z" fill="#f5f5f4" opacity="0.95"/>
    <path d="M460 470c80-80 250-90 360 40" fill="none" stroke="#a855f7" stroke-width="18" stroke-linecap="round" opacity="0.65"/>
  </g>
  <text x="50" y="740" fill="#e5e7eb" font-family="system-ui, -apple-system, Segoe UI, Roboto" font-size="42" opacity="0.85">
    M&amp;N — Glass-Sheen Cheesecake (illustration)
  </text>
</svg>


